<?xml version="1.0" standalone="no"?>
<!DOCTYPE svg PUBLIC "-//W3C//DTD SVG 20010904//EN"
 "http://www.w3.org/TR/2001/REC-SVG-20010904/DTD/svg10.dtd">
<svg version="1.0" xmlns="http://www.w3.org/2000/svg"
 width="520.000000pt" height="520.000000pt" viewBox="0 0 520.000000 520.000000"
 preserveAspectRatio="xMidYMid meet">
<metadata>
Created by potrace 1.11, written by Peter Selinger 2001-2013
</metadata>
<g transform="translate(0.000000,520.000000) scale(0.100000,-0.100000)"
fill="#000000" stroke="none">
<path d="M160 5187 c-49 -16 -132 -102 -148 -154 -17 -58 -18 -4797 -1 -4858
17 -59 58 -111 114 -142 l50 -28 2405 -3 c1801 -2 2415 0 2445 9 56 16 108 56
142 109 l28 45 2 2425 2 2425 -21 43 c-27 57 -97 117 -153 131 -62 16 -4815
14 -4865 -2z"/>
</g>
</svg>
